PathFileType	4	(X/Y/Z) abd_0kg_2.trc																										
DataRate	CameraRate	NumFrames	NumMarkers	Units	OrigDataRate	OrigDataStartFrame	OrigNumFrames																					
100	100	58	9	mm	100	212	846																					
Frame#	Time	gu			centelbow			EpL			centpxt8			centijc7			ij			ts			aa			ai		
		X1	Y1	Z1	X2	Y2	Z2	X3	Y3	Z3	X4	Y4	Z4	X5	Y5	Z5	X6	Y6	Z6	X7	Y7	Z7	X8	Y8	Z8	X9	Y9	Z9  
211	2.11	-95.611	47.793	141.727	-170.716	15.344	374.73	-186.738	42.759	369.151	-46.816	-153.158	-8.669	-46.816	31.938	-8.669	0	0	0	-124.668	-3.482	32.68	-132.464	65.215	129.864	-126.52	-93.126	102.295
212	2.12	-95.462	48.48	141.18	-170.004	20.362	374.926	-185.963	47.721	368.909	-46.816	-153.158	-8.669	-46.816	31.938	-8.669	0	0	0	-124.737	-3.739	32.824	-132.268	65.72	129.486	-126.32	-92.83	103.15
213	2.13	-95.331	48.995	140.766	-169.311	25.181	375.168	-185.208	52.478	368.717	-46.816	-153.158	-8.669	-46.816	31.938	-8.669	0	0	0	-124.641	-4.111	33.103	-131.945	66.094	129.241	-126.038	-92.655	104.122
214	2.14	-95.087	49.221	140.494	-168.467	29.718	375.482	-184.298	56.948	368.602	-46.816	-153.158	-8.669	-46.816	31.938	-8.669	0	0	0	-124.588	-4.616	33.564	-131.699	66.315	129.184	-125.84	-92.619	105.254
215	2.15	-94.671	49.275	140.235	-167.43	34.093	375.734	-183.204	61.244	368.424	-46.816	-153.158	-8.669	-46.816	31.938	-8.669	0	0	0	-124.733	-5.262	34.123	-131.66	66.37	129.232	-125.834	-92.736	106.461
216	2.16	-94.272	49.505	139.789	-166.434	38.619	375.709	-182.186	65.661	367.959	-46.816	-153.158	-8.669	-46.816	31.938	-8.669	0	0	0	-124.943	-5.823	34.476	-131.687	66.484	129.086	-125.824	-92.778	107.441
217	2.17	-94.149	50.171	139.104	-165.783	43.513	375.343	-181.56	70.406	367.142	-46.816	-153.158	-8.669	-46.816	31.938	-8.669	0	0	0	-124.991	-5.927	34.409	-131.572	67.018	128.539	-125.534	-92.379	107.971
218	2.18	-94.234	51.22	138.373	-165.456	48.673	374.816	-181.289	75.392	366.164	-46.816	-153.158	-8.669	-46.816	31.938	-8.669	0	0	0	-124.898	-5.638	34.128	-131.344	67.901	127.805	-125.054	-91.615	108.248
219	2.19	-94.241	52.401	137.843	-165.207	53.835	374.372	-181.094	80.373	365.276	-46.816	-153.158	-8.669	-46.816	31.938	-8.669	0	0	0	-124.939	-5.464	34.022	-131.262	68.645	127.256	-124.814	-90.98	108.672
220	2.2	-94.113	53.436	137.484	-164.932	58.802	374.001	-180.849	85.169	364.468	-46.816	-153.158	-8.669	-46.816	31.938	-8.669	0	0	0	-125.32	-5.71	34.198	-131.522	68.986	126.972	-125.099	-90.753	109.386
221	2.21	-93.954	54.306	137.001	-164.588	63.657	373.449	-180.515	89.857	363.485	-46.816	-153.158	-8.669	-46.816	31.938	-8.669	0	0	0	-125.867	-6.218	34.469	-131.958	69.093	126.751	-125.652	-90.764	110.215
222	2.22	-93.786	55.249	136.239	-164.091	68.627	372.591	-180.029	94.655	362.205	-46.816	-153.158	-8.669	-46.816	31.938	-8.669	0	0	0	-126.221	-6.678	34.612	-132.206	69.25	126.394	-125.956	-90.715	110.923
223	2.23	-93.657	56.188	135.376	-163.52	73.582	371.598	-179.472	99.435	360.802	-46.816	-153.158	-8.669	-46.816	31.938	-8.669	0	0	0	-126.332	-6.926	34.505	-132.19	69.603	125.795	-125.87	-90.457	111.369
224	2.24	-93.654	56.833	134.591	-163.02	78.218	370.632	-178.974	103.901	359.439	-46.816	-153.158	-8.669	-46.816	31.938	-8.669	0	0	0	-126.435	-6.931	34.161	-132.135	70.191	124.961	-125.657	-89.952	111.572
225	2.25	-93.744	57.356	133.858	-162.587	82.647	369.665	-178.526	108.17	358.093	-46.816	-153.158	-8.669	-46.816	31.938	-8.669	0	0	0	-126.625	-6.737	33.799	-132.161	70.954	124.122	-125.524	-89.264	111.734
226	2.26	-93.825	58.144	133.172	-162.198	87.135	368.691	-178.111	112.509	356.761	-46.816	-153.158	-8.669	-46.816	31.938	-8.669	0	0	0	-126.782	-6.566	33.744	-132.201	71.633	123.635	-125.48	-88.648	112.144
227	2.27	-93.849	59.113	132.613	-161.898	91.585	367.771	-177.769	116.823	355.5	-46.816	-153.158	-8.669	-46.816	31.938	-8.669	0	0	0	-126.857	-6.662	34.061	-132.233	71.977	123.57	-125.528	-88.359	112.862
228	2.28	-93.814	59.87	132.22	-161.695	95.734	366.933	-177.497	120.848	354.324	-46.816	-153.158	-8.669	-46.816	31.938	-8.669	0	0	0	-126.927	-6.972	34.437	-132.311	72.061	123.597	-125.69	-88.323	113.595
229	2.29	-93.783	60.242	132.03	-161.586	99.496	366.222	-177.292	124.499	353.274	-46.816	-153.158	-8.669	-46.816	31.938	-8.669	0	0	0	-127.022	-7.144	34.554	-132.425	72.253	123.39	-125.882	-88.175	114.042
230	2.3	-93.829	60.403	131.87	-161.515	103.018	365.508	-177.113	127.913	352.228	-46.816	-153.158	-8.669	-46.816	31.938	-8.669	0	0	0	-127.068	-6.916	34.326	-132.482	72.827	122.851	-125.954	-87.637	114.13
231	2.31	-93.867	60.661	131.229	-161.255	106.595	364.324	-176.761	131.376	350.728	-46.816	-153.158	-8.669	-46.816	31.938	-8.669	0	0	0	-126.981	-6.455	33.791	-132.398	73.652	121.986	-125.833	-86.845	113.927
232	2.32	-93.783	61.076	129.905	-160.822	110.424	362.402	-176.253	135.072	348.479	-46.816	-153.158	-8.669	-46.816	31.938	-8.669	0	0	0	-126.849	-6.204	33.043	-132.302	74.344	120.832	-125.731	-86.191	113.581
233	2.33	-93.876	61.477	128.452	-161.057	114.538	360.088	-176.396	139.019	345.775	-46.816	-153.158	-8.669	-46.816	31.938	-8.669	0	0	0	-126.927	-6.34	32.299	-132.614	74.79	119.536	-126.08	-85.791	113.368
234	2.34	-94.669	61.872	127.54	-163.001	118.999	357.869	-178.209	143.264	343.058	-46.816	-153.158	-8.669	-46.816	31.938	-8.669	0	0	0	-127.301	-6.687	31.901	-133.595	75.18	118.405	-127.07	-85.45	113.644
235	2.35	-96.159	62.523	127.15	-166.606	123.849	355.756	-181.666	147.844	340.365	-46.816	-153.158	-8.669	-46.816	31.938	-8.669	0	0	0	-127.767	-7.145	32.022	-135.035	75.555	117.653	-128.418	-85.111	114.523
236	2.36	-97.775	63.551	126.847	-170.803	128.93	353.511	-185.73	152.613	337.52	-46.816	-153.158	-8.669	-46.816	31.938	-8.669	0	0	0	-128.111	-7.714	32.487	-136.546	75.836	117.181	-129.704	-84.845	115.757
237	2.37	-99.117	64.587	126.62	-174.731	133.837	351.278	-189.533	157.197	334.706	-46.816	-153.158	-8.669	-46.816	31.938	-8.669	0	0	0	-128.348	-8.292	33.098	-137.958	76.086	116.841	-130.805	-84.587	117.114
238	2.38	-100.271	65.181	126.65	-178.192	138.191	349.32	-192.857	161.241	332.202	-46.816	-153.158	-8.669	-46.816	31.938	-8.669	0	0	0	-128.662	-8.734	33.69	-139.344	76.434	116.498	-131.855	-84.213	118.416
239	2.39	-101.374	65.406	126.658	-181.152	141.963	347.472	-195.692	164.72	329.863	-46.816	-153.158	-8.669	-46.816	31.938	-8.669	0	0	0	-129.128	-9.093	34.092	-140.741	76.785	116.036	-132.895	-83.82	119.457
240	2.4	-102.303	65.634	126.38	-183.513	145.378	345.537	-197.976	167.85	327.502	-46.816	-153.158	-8.669	-46.816	31.938	-8.669	0	0	0	-129.612	-9.594	34.41	-142.044	76.884	115.599	-133.813	-83.668	120.322
241	2.41	-102.949	66.079	126.003	-185.351	148.688	343.649	-199.782	170.871	325.235	-46.816	-153.158	-8.669	-46.816	31.938	-8.669	0	0	0	-129.964	-10.137	34.748	-143.16	76.857	115.264	-134.49	-83.635	121.137
242	2.42	-103.496	66.708	125.716	-186.932	152.038	341.914	-201.358	173.926	323.147	-46.816	-153.158	-8.669	-46.816	31.938	-8.669	0	0	0	-130.117	-10.292	34.884	-144.041	77.184	114.752	-134.811	-83.232	121.737
243	2.43	-104.114	67.434	125.401	-188.368	155.509	340.176	-202.801	177.098	321.07	-46.816	-153.158	-8.669	-46.816	31.938	-8.669	0	0	0	-130.085	-10.007	34.757	-144.669	77.956	113.97	-134.784	-82.368	122.093
244	2.44	-104.714	68.295	124.887	-189.533	159.163	338.272	-203.98	180.452	318.842	-46.816	-153.158	-8.669	-46.816	31.938	-8.669	0	0	0	-129.994	-9.644	34.615	-145.128	78.806	113.179	-134.633	-81.416	122.439
245	2.45	-105.143	69.317	124.216	-190.364	162.92	336.254	-204.813	183.928	316.522	-46.816	-153.158	-8.669	-46.816	31.938	-8.669	0	0	0	-129.95	-9.326	34.532	-145.528	79.594	112.476	-134.551	-80.53	122.819
246	2.46	-105.355	70.362	123.559	-190.913	166.577	334.288	-205.338	187.333	314.275	-46.816	-153.158	-8.669	-46.816	31.938	-8.669	0	0	0	-129.937	-8.93	34.425	-145.885	80.431	111.788	-134.553	-79.6	123.138
247	2.47	-105.417	71.161	123.1	-191.268	169.903	332.538	-205.641	190.435	312.257	-46.816	-153.158	-8.669	-46.816	31.938	-8.669	0	0	0	-129.987	-8.609	34.369	-146.248	81.166	111.185	-134.716	-78.782	123.47
248	2.48	-105.457	71.453	122.981	-191.535	172.733	331.109	-205.836	193.054	310.567	-46.816	-153.158	-8.669	-46.816	31.938	-8.669	0	0	0	-130.283	-8.684	34.503	-146.791	81.492	110.796	-135.243	-78.385	123.962
249	2.49	-105.594	71.33	123.018	-191.785	175.231	329.803	-206.015	195.336	309.001	-46.816	-153.158	-8.669	-46.816	31.938	-8.669	0	0	0	-130.874	-9.14	34.841	-147.588	81.436	110.614	-136.138	-78.374	124.644
250	2.5	-105.88	71.358	122.692	-192.03	177.937	328.127	-206.222	197.801	307.07	-46.816	-153.158	-8.669	-46.816	31.938	-8.669	0	0	0	-131.432	-9.626	35.239	-148.356	81.363	110.468	-136.999	-78.372	125.398
251	2.51	-106.262	71.8	121.908	-192.279	181.022	326.006	-206.47	200.624	304.703	-46.816	-153.158	-8.669	-46.816	31.938	-8.669	0	0	0	-131.553	-9.861	35.491	-148.715	81.558	110.142	-137.363	-78.085	126.031
252	2.52	-106.61	72.114	121.27	-192.505	183.91	324.02	-206.693	203.253	302.48	-46.816	-153.158	-8.669	-46.816	31.938	-8.669	0	0	0	-131.223	-9.816	35.513	-148.655	82.022	109.586	-137.207	-77.516	126.434
253	2.53	-106.767	71.901	121.115	-192.53	186.208	322.518	-206.7	205.306	300.749	-46.816	-153.158	-8.669	-46.816	31.938	-8.669	0	0	0	-130.778	-9.67	35.382	-148.5	82.551	108.907	-136.898	-76.877	126.658
254	2.54	-106.77	71.585	121.108	-192.294	188.33	321.21	-206.465	207.18	299.227	-46.816	-153.158	-8.669	-46.816	31.938	-8.669	0	0	0	-130.571	-9.775	35.296	-148.577	82.81	108.294	-136.853	-76.512	126.905
255	2.55	-106.885	71.689	120.952	-192.028	190.846	319.791	-206.244	209.428	297.609	-46.816	-153.158	-8.669	-46.816	31.938	-8.669	0	0	0	-130.719	-10.311	35.481	-148.983	82.638	107.95	-137.232	-76.579	127.414
256	2.56	-107.157	72.197	120.594	-191.749	193.84	318.158	-206.044	212.13	295.785	-46.816	-153.158	-8.669	-46.816	31.938	-8.669	0	0	0	-131.079	-10.971	35.922	-149.579	82.346	107.857	-137.82	-76.764	128.18
257	2.57	-107.345	72.846	119.866	-191.151	197.083	316.147	-205.551	215.065	293.593	-46.816	-153.158	-8.669	-46.816	31.938	-8.669	0	0	0	-131.456	-11.357	36.327	-150.181	82.325	107.725	-138.301	-76.661	128.924
258	2.58	-107.365	73.473	118.733	-190.201	200.34	313.739	-204.719	218.013	291.017	-46.816	-153.158	-8.669	-46.816	31.938	-8.669	0	0	0	-131.709	-11.477	36.483	-150.644	82.575	107.338	-138.517	-76.269	129.441
259	2.59	-107.29	73.869	117.696	-189.176	203.312	311.406	-203.797	220.69	288.522	-46.816	-153.158	-8.669	-46.816	31.938	-8.669	0	0	0	-131.775	-11.558	36.415	-150.907	82.871	106.714	-138.496	-75.819	129.747
260	2.6	-107.109	73.839	117.329	-188.224	205.766	309.683	-202.908	222.869	286.633	-46.816	-153.158	-8.669	-46.816	31.938	-8.669	0	0	0	-131.701	-11.664	36.252	-151.061	83.143	105.978	-138.391	-75.387	129.955
261	2.61	-106.862	73.532	117.524	-187.338	207.887	308.46	-202.061	224.725	285.241	-46.816	-153.158	-8.669	-46.816	31.938	-8.669	0	0	0	-131.541	-11.807	36.225	-151.201	83.373	105.355	-138.32	-74.993	130.284
262	2.62	-106.747	73.369	117.652	-186.56	210.177	307.119	-201.34	226.734	283.734	-46.816	-153.158	-8.669	-46.816	31.938	-8.669	0	0	0	-131.359	-12.078	36.522	-151.379	83.464	105.047	-138.32	-74.735	130.922
263	2.63	-106.903	73.654	117.224	-185.911	212.973	305.193	-200.794	229.215	281.653	-46.816	-153.158	-8.669	-46.816	31.938	-8.669	0	0	0	-131.32	-12.446	36.968	-151.698	83.442	104.902	-138.428	-74.586	131.697
264	2.64	-107.241	74.318	116.171	-185.254	216.155	302.667	-200.285	232.064	278.993	-46.816	-153.158	-8.669	-46.816	31.938	-8.669	0	0	0	-131.523	-12.743	37.227	-152.2	83.473	104.604	-138.645	-74.378	132.285
265	2.65	-107.543	75.053	114.868	-184.435	219.327	299.955	-199.623	234.913	276.168	-46.816	-153.158	-8.669	-46.816	31.938	-8.669	0	0	0	-131.831	-12.807	37.213	-152.736	83.728	104.061	-138.871	-73.944	132.598
266	2.66	-107.588	75.689	113.758	-183.403	222.257	297.481	-198.724	237.551	273.59	-46.816	-153.158	-8.669	-46.816	31.938	-8.669	0	0	0	-131.926	-12.576	36.99	-153.016	84.265	103.336	-138.89	-73.235	132.685
267	2.67	-107.33	76.25	112.902	-182.21	224.995	295.254	-197.631	240.022	271.257	-46.816	-153.158	-8.669	-46.816	31.938	-8.669	0	0	0	-131.647	-12.289	36.734	-152.907	84.832	102.617	-138.631	-72.516	132.701
268	2.68	-107.039	76.653	112.268	-181.071	227.538	293.203	-196.558	242.313	269.094	-46.816	-153.158	-8.669	-46.816	31.938	-8.669	0	0	0	-131.288	-12.375	36.764	-152.723	84.994	102.221	-138.458	-72.23	132.949
